# File produced by Open Asset Import Library (http://www.assimp.sf.net)
# (assimp v3.1.161429758)

mtllib Mesh_edificioMorfosis.mtl

# vertex positions
v -63.217030 19.497971 11.930039
v -63.217030 19.497971 35.763039
v -58.132061 20.859100 34.246868
v -58.132061 20.859100 13.446200
v -28.641640 -0.502027 11.930039
v -63.217030 -0.502027 11.930039
v -28.641640 19.497971 11.930039
v -15.774792 -0.502027 35.763039
v 14.629108 -0.502027 35.763039
v 14.629108 19.497971 35.763039
v -15.774792 19.497971 35.763039
v -63.217030 -0.502027 35.763039
v 14.629108 -0.502027 11.930039
v -15.774792 -0.502027 11.930039
v -15.774792 19.497971 11.930039
v 14.629108 19.497971 11.930039
v -28.641640 -0.502027 35.763039
v -28.641640 19.497971 35.763039
v -27.955791 20.859100 13.446200
v -16.726023 20.859100 13.446200
v 9.809515 20.859100 13.446200
v 9.809515 20.859100 34.246868
v -49.592186 20.194130 15.770019
v -49.592186 20.194130 31.923048
v -36.495659 20.194130 31.923048
v -36.495659 20.194130 15.770019
v -27.955791 20.859100 34.246868
v -16.726023 20.859100 34.246868
v -10.368571 20.917780 15.392569
v 3.452065 20.917780 15.392569
v 3.452065 20.917780 32.300499
v -10.368571 20.917780 32.300499
v -50.933842 20.859100 33.180981
v -50.933842 20.859100 14.512100
v -35.154011 20.859100 14.512100
v -35.154011 20.859100 33.180981
v 14.629108 19.318619 19.695108
v 14.629108 -0.322667 19.695108
v 14.629108 -0.322667 27.997959
v 14.629108 19.318619 27.997959
v 2.233154 20.421471 15.765749
v -9.149663 20.421471 15.765749
v -9.149663 20.421471 31.927330
v 2.233154 20.421471 31.927330
v -2.544024 0.306448 78.432503
v -2.544024 19.418610 78.432503
v 39.909706 19.418610 87.279984
v 39.909706 0.306448 87.279984
v -35.323898 0.306448 53.368706
v -35.323898 19.418610 53.368706
v -79.113632 19.418610 62.216190
v -79.113632 0.306448 62.216190
v 39.909706 19.418610 62.216190
v 39.909706 0.306448 62.216190
v -79.113632 19.418610 87.279984
v -79.113632 0.306448 87.279984
v -35.323898 0.306448 78.432503
v -35.323898 19.418610 78.432503
v -2.544024 19.418610 53.368706
v -2.544024 0.306448 53.368706
v -33.088051 20.461361 55.681725
v -76.102577 20.461361 63.322262
v 36.540455 20.014759 84.966965
v 36.540455 20.014759 63.322262
v -76.102577 20.461361 84.966965
v -33.372971 20.461361 75.537918
v -3.147854 20.461361 75.548851
v -3.524912 20.461361 55.681725
v -46.144409 20.461361 73.464020
v -46.136051 19.834539 73.463943
v -46.004875 19.834539 61.730839
v -46.013237 20.461361 61.730915
v 9.481049 20.319458 73.792007
v 9.489418 19.692638 73.791931
v 23.874306 19.529369 77.212448
v 23.865936 20.156191 77.212517
v -22.998011 0.557128 53.368706
v -14.869901 0.557128 53.368706
v -14.869901 19.167940 53.368706
v -22.998011 19.167940 53.368706
v 9.247353 20.318729 62.525452
v 23.886597 20.156948 65.311607
v -63.271446 20.461361 78.314774
v -63.271446 20.461361 65.665459
v 9.255720 19.691910 62.525368
v 23.894966 19.530128 65.311531
v -63.263081 19.834539 78.314713
v -63.263081 19.834539 65.665382
v -2.544024 0.306448 -30.796867
v 39.909706 0.306448 -39.644348
v 39.909706 19.418610 -39.644348
v -2.544024 19.418610 -30.796867
v -35.323898 0.306448 -5.733068
v -79.113632 0.306448 -14.580551
v -79.113632 19.418610 -14.580551
v -35.323898 19.418610 -5.733068
v 39.909706 0.306448 -14.580551
v 39.909706 19.418610 -14.580551
v -79.113632 0.306448 -39.644348
v -79.113632 19.418610 -39.644348
v -35.323898 0.306448 -30.796867
v -35.323898 19.418610 -30.796867
v -2.544024 0.306448 -5.733068
v -2.544024 19.418610 -5.733068
v -76.102577 20.461361 -15.686638
v -33.088051 20.461361 -8.046093
v 36.540455 20.014759 -15.686638
v 36.540455 20.014759 -37.331326
v -76.102577 20.461361 -37.331326
v -3.147854 20.461361 -27.913216
v -33.372971 20.461361 -27.902279
v -3.524912 20.461361 -8.046093
v -46.144409 20.461361 -25.828377
v -46.013237 20.461361 -14.095280
v -46.004875 19.834539 -14.095211
v -46.136051 19.834539 -25.828308
v 9.481049 20.319458 -26.156368
v 23.865936 20.156191 -29.576889
v 23.874306 19.529369 -29.576805
v 9.489418 19.692638 -26.156288
v -22.998011 0.557128 -5.733068
v -14.869901 0.557128 -5.733068
v -14.869901 19.167940 -5.733068
v -22.998011 19.167940 -5.733068
v 9.247353 20.318729 -14.889820
v 23.886597 20.156948 -17.675972
v -63.271446 20.461361 -30.679146
v -63.271446 20.461361 -18.029819
v 23.894966 19.530128 -17.675896
v 9.255720 19.691910 -14.889740
v -63.263081 19.834539 -30.679070
v -63.263081 19.834539 -18.029751

# UV coordinates
vt 0.116748 0.918645
vt 0.004030 0.919049
vt 0.012845 0.894845
vt 0.107728 0.894730
vt 0.333962 0.557554
vt 0.333962 0.717264
vt 0.241578 0.717264
vt 0.241578 0.557554
vt 0.545718 0.704102
vt 0.545718 0.563660
vt 0.638102 0.563660
vt 0.638102 0.704102
vt 0.444338 0.809505
vt 0.444338 0.699416
vt 0.536722 0.699416
vt 0.536722 0.809505
vt 0.444338 0.695801
vt 0.444338 0.555360
vt 0.536722 0.555360
vt 0.536722 0.695801
vt 0.435342 0.555360
vt 0.435342 0.715070
vt 0.342958 0.715070
vt 0.342958 0.555360
vt 0.117794 0.698597
vt 0.117818 0.758247
vt 0.108416 0.755005
vt 0.108356 0.703102
vt 0.003276 0.557575
vt 0.115791 0.557278
vt 0.107023 0.580293
vt 0.012215 0.580317
vt 0.309053 0.727298
vt 0.309004 0.802121
vt 0.248327 0.802073
vt 0.248376 0.727251
vt 0.011395 0.755145
vt 0.011341 0.703241
vt 0.001953 0.758411
vt 0.001953 0.698747
vt 0.099031 0.673652
vt 0.098365 0.609636
vt 0.020973 0.609708
vt 0.020554 0.673721
vt 0.017412 0.861672
vt 0.102980 0.861491
vt 0.103322 0.788469
vt 0.016668 0.788540
vt 0.835425 0.718918
vt 0.744698 0.718918
vt 0.743870 0.683049
vt 0.836254 0.683049
vt 0.744698 0.757270
vt 0.835425 0.757270
vt 0.836254 0.793139
vt 0.743870 0.793139
vt 0.315802 0.720878
vt 0.315802 0.808493
vt 0.241578 0.808493
vt 0.241578 0.720878
vt 0.401617 0.795057
vt 0.349037 0.795057
vt 0.349037 0.720403
vt 0.401617 0.720403
vt 0.474856 0.121635
vt 0.474856 0.174215
vt 0.471987 0.179845
vt 0.471987 0.116005
vt 0.437990 0.121467
vt 0.437990 0.174047
vt 0.435122 0.179677
vt 0.435122 0.115837
vt 0.342958 0.796781
vt 0.342958 0.718680
vt 0.407696 0.718680
vt 0.407696 0.796781
vt 0.998047 0.202269
vt 0.909764 0.202269
vt 0.909764 0.001953
vt 0.998047 0.001953
vt 0.901275 0.208314
vt 0.812992 0.208314
vt 0.812992 0.001953
vt 0.901275 0.001953
vt 0.928924 0.679435
vt 0.840641 0.679435
vt 0.840641 0.563660
vt 0.928924 0.563660
vt 0.735381 0.798824
vt 0.647098 0.798824
vt 0.647098 0.683049
vt 0.735381 0.683049
vt 0.998047 0.353685
vt 0.909764 0.353685
vt 0.998047 0.560046
vt 0.909764 0.560046
vt 0.901275 0.560046
vt 0.812992 0.560046
vt 0.812992 0.359731
vt 0.901275 0.359731
vt 0.167847 0.350206
vt 0.179537 0.339821
vt 0.213167 0.538939
vt 0.206777 0.553378
vt 0.324612 0.001953
vt 0.313604 0.017675
vt 0.213726 0.018330
vt 0.208190 0.002592
vt 0.312809 0.539511
vt 0.324612 0.553940
vt 0.285698 0.350571
vt 0.271414 0.341497
vt 0.271495 0.201532
vt 0.285670 0.198740
vt 0.167914 0.198884
vt 0.179606 0.203506
vt 0.073971 0.134403
vt 0.071076 0.134402
vt 0.071076 0.080201
vt 0.073971 0.080202
vt 0.465666 0.140189
vt 0.462771 0.140120
vt 0.462771 0.071816
vt 0.465666 0.071886
vt 0.900117 0.265250
vt 0.900117 0.302795
vt 0.814150 0.302795
vt 0.814150 0.265250
vt 0.210862 0.144375
vt 0.223296 0.076678
vt 0.278254 0.076460
vt 0.262944 0.143082
vt 0.282828 0.480191
vt 0.224452 0.479746
vt 0.261227 0.400668
vt 0.207002 0.399847
vt 0.942021 0.666035
vt 0.992402 0.652946
vt 0.995525 0.721715
vt 0.942021 0.734339
vt 0.901468 0.780618
vt 0.845249 0.764695
vt 0.849487 0.683041
vt 0.901468 0.698393
vt 0.001953 0.137995
vt 0.004848 0.137926
vt 0.004848 0.206765
vt 0.001953 0.206835
vt 0.144807 0.001953
vt 0.147702 0.001990
vt 0.147702 0.084215
vt 0.144807 0.084178
vt 0.462771 0.143803
vt 0.465667 0.143803
vt 0.465667 0.195856
vt 0.462771 0.195856
vt 0.172456 0.001953
vt 0.175351 0.001953
vt 0.175351 0.056926
vt 0.172456 0.056926
vt 0.444338 0.071686
vt 0.447233 0.071648
vt 0.447233 0.153412
vt 0.444338 0.153450
vt 0.163239 0.001953
vt 0.166135 0.001953
vt 0.166135 0.060383
vt 0.163239 0.060383
vt 0.236463 0.697599
vt 0.126374 0.697599
vt 0.126374 0.557158
vt 0.236463 0.557158
vt 0.236463 0.916744
vt 0.126374 0.916744
vt 0.126374 0.757034
vt 0.236463 0.757034
vt 0.707732 0.359731
vt 0.707732 0.560046
vt 0.619449 0.560046
vt 0.619449 0.359731
vt 0.716221 0.208314
vt 0.716221 0.001953
vt 0.804503 0.001953
vt 0.804503 0.208314
vt 0.647098 0.679435
vt 0.647098 0.563660
vt 0.735381 0.563660
vt 0.735381 0.679435
vt 0.832152 0.563660
vt 0.832152 0.679435
vt 0.743870 0.679435
vt 0.743870 0.563660
vt 0.707732 0.208314
vt 0.619449 0.208314
vt 0.707732 0.001953
vt 0.619449 0.001953
vt 0.716221 0.560046
vt 0.716221 0.359731
vt 0.804503 0.359731
vt 0.804503 0.560046
vt 0.158717 0.350206
vt 0.119787 0.553378
vt 0.113397 0.538939
vt 0.147028 0.339821
vt 0.001953 0.001953
vt 0.118375 0.002592
vt 0.112839 0.018330
vt 0.012961 0.017675
vt 0.001953 0.553940
vt 0.013756 0.539511
vt 0.040866 0.350571
vt 0.040894 0.198740
vt 0.055070 0.201532
vt 0.055151 0.341497
vt 0.158650 0.198884
vt 0.146959 0.203506
vt 0.591800 0.056155
vt 0.591800 0.001954
vt 0.594695 0.001953
vt 0.594695 0.056154
vt 0.453555 0.181381
vt 0.453555 0.113077
vt 0.456449 0.113008
vt 0.456449 0.181312
vt 0.717378 0.265250
vt 0.717378 0.302795
vt 0.803346 0.302795
vt 0.803346 0.265250
vt 0.115703 0.144375
vt 0.103268 0.076678
vt 0.048311 0.076460
vt 0.063621 0.143082
vt 0.043737 0.480191
vt 0.102113 0.479746
vt 0.065337 0.400668
vt 0.119562 0.399847
vt 0.599222 0.720798
vt 0.599222 0.789101
vt 0.545718 0.776478
vt 0.548841 0.707709
vt 0.937413 0.661233
vt 0.937413 0.579009
vt 0.989394 0.563657
vt 0.993631 0.645311
vt 0.014064 0.098694
vt 0.014064 0.167533
vt 0.011169 0.167464
vt 0.011169 0.098625
vt 0.001953 0.134313
vt 0.001953 0.052088
vt 0.004849 0.052050
vt 0.004849 0.134275
vt 0.447234 0.157064
vt 0.447234 0.209118
vt 0.444338 0.209118
vt 0.444338 0.157064
vt 0.184568 0.001953
vt 0.184568 0.056926
vt 0.181672 0.056926
vt 0.181672 0.001953
vt 0.453555 0.109357
vt 0.453555 0.027593
vt 0.456450 0.027630
vt 0.456450 0.109395
vt 0.154023 0.060383
vt 0.154023 0.001953
vt 0.156919 0.001953
vt 0.156919 0.060383
vt 0.614806 0.198055
vt 0.499031 0.198055
vt 0.458163 0.001953
vt 0.573937 0.001953
vt 0.573937 0.551746
vt 0.458163 0.551746
vt 0.499031 0.349472
vt 0.614806 0.349472
vt 0.296876 0.198055
vt 0.337745 0.001953
vt 0.453519 0.001953
vt 0.412651 0.198055
vt 0.337745 0.551746
vt 0.296876 0.349472
vt 0.412651 0.349472
vt 0.453519 0.551746

# vertex normals
vn -0.258596 0.965985 0.000000
vn 0.000000 0.000000 -1.000000
vn 0.000000 0.000000 1.000000
vn -1.000000 0.000000 0.000000
vn 0.000000 0.744134 -0.668030
vn 0.271788 0.962357 0.000000
vn 0.000000 1.000000 0.000000
vn 0.000000 0.744134 0.668030
vn 0.000000 0.999547 -0.030101
vn 0.000000 0.999547 0.030101
vn -0.009200 0.999958 0.000000
vn 0.009200 0.999958 0.000000
vn 1.000000 0.000000 0.000000
vn 0.444091 0.895982 0.000000
vn -0.444091 0.895982 0.000000
vn 0.000000 0.884099 -0.467299
vn 0.000000 0.884099 0.467299
vn 0.000000 0.600975 0.799267
vn 0.000000 0.600975 -0.799267
vn 0.377090 0.926176 0.000000
vn -0.377090 0.926176 0.000000
vn 0.203994 0.000000 -0.978972
vn 0.198000 0.000000 0.980202
vn -0.198000 0.000000 -0.980202
vn -0.203994 0.000000 0.978972
vn 0.080896 -0.901252 0.425677
vn -0.174202 -0.984710 0.000000
vn 0.327217 -0.944949 0.000000
vn 0.000100 -0.940605 -0.339502
vn 0.000000 -0.911629 0.411013
vn -0.094296 -0.889961 -0.446181
vn -0.075297 -0.933160 0.351485
vn 0.072796 -0.933849 -0.350181
vn 0.999849 0.013301 0.011201
vn -0.231390 -0.003200 0.972856
vn 0.000000 -1.000000 0.000000
vn -0.011100 -0.999938 0.000100
vn -0.011200 -0.999937 0.000000
vn -0.011300 -0.999936 0.000100
vn -0.011200 -0.999937 0.000200
vn -0.011200 -0.999937 0.000100
vn 0.186992 0.002600 -0.982358
vn 0.272513 0.003500 0.962146
vn -0.999697 -0.013300 0.020700
vn 0.999910 0.013300 0.001700
vn -0.222294 -0.002800 -0.974976
vn -0.999912 -0.013300 0.000000
vn 0.203994 0.000000 0.978972
vn 0.198000 0.000000 -0.980202
vn -0.198000 0.000000 0.980202
vn -0.203994 0.000000 -0.978972
vn 0.080896 -0.901252 -0.425677
vn 0.000100 -0.940605 0.339502
vn 0.000000 -0.911629 -0.411013
vn -0.094296 -0.889961 0.446181
vn -0.075297 -0.933160 -0.351485
vn 0.072796 -0.933849 0.350181
vn 0.999849 0.013301 -0.011201
vn -0.231390 -0.003200 -0.972856
vn -0.011100 -0.999938 -0.000100
vn -0.011300 -0.999936 -0.000100
vn -0.011200 -0.999937 -0.000200
vn -0.011200 -0.999937 -0.000100
vn 0.186992 0.002600 0.982358
vn 0.272513 0.003500 -0.962146
vn -0.999697 -0.013300 -0.020700
vn 0.999910 0.013300 -0.001700
vn -0.222294 -0.002800 0.974976

# Mesh
g Edificio_inicio
usemtl DefaultMaterial
f 4/4/1 1/1/1 2/2/1
f 2/2/1 3/3/1 4/4/1
f 7/8/2 5/5/2 6/6/2
f 6/6/2 1/7/2 7/8/2
f 11/12/3 8/9/3 9/10/3
f 9/10/3 10/11/3 11/12/3
f 1/16/4 6/13/4 12/14/4
f 12/14/4 2/15/4 1/16/4
f 16/20/2 13/17/2 14/18/2
f 14/18/2 15/19/2 16/20/2
f 2/24/3 12/21/3 17/22/3
f 17/22/3 18/23/3 2/24/3
f 20/28/5 15/25/5 7/26/5
f 7/26/5 19/27/5 20/28/5
f 22/32/6 10/29/6 16/30/6
f 16/30/6 21/31/6 22/32/6
f 26/36/7 23/33/7 24/34/7
f 24/34/7 25/35/7 26/36/7
f 19/27/7 27/37/7 28/38/7
f 28/38/7 20/28/7 19/27/7
f 19/27/5 7/26/5 1/1/5
f 1/1/5 4/4/5 19/27/5
f 3/3/8 2/2/8 18/39/8
f 18/39/8 27/37/8 3/3/8
f 28/38/8 11/40/8 10/29/8
f 10/29/8 22/32/8 28/38/8
f 21/31/5 16/30/5 15/25/5
f 15/25/5 20/28/5 21/31/5
f 27/37/8 18/39/8 11/40/8
f 11/40/8 28/38/8 27/37/8
f 20/28/9 29/41/9 30/42/9
f 30/42/9 21/31/9 20/28/9
f 22/32/10 31/43/10 32/44/10
f 32/44/10 28/38/10 22/32/10
f 28/38/11 32/44/11 29/41/11
f 29/41/11 20/28/11 28/38/11
f 21/31/12 30/42/12 31/43/12
f 31/43/12 22/32/12 21/31/12
f 3/3/7 33/45/7 34/46/7
f 34/46/7 4/4/7 3/3/7
f 19/27/7 35/47/7 36/48/7
f 36/48/7 27/37/7 19/27/7
f 27/37/7 36/48/7 33/45/7
f 33/45/7 3/3/7 27/37/7
f 4/4/7 34/46/7 35/47/7
f 35/47/7 19/27/7 4/4/7
f 16/52/13 37/49/13 38/50/13
f 38/50/13 13/51/13 16/52/13
f 9/56/13 39/53/13 40/54/13
f 40/54/13 10/55/13 9/56/13
f 10/55/13 40/54/13 37/49/13
f 37/49/13 16/52/13 10/55/13
f 13/51/13 38/50/13 39/53/13
f 39/53/13 9/56/13 13/51/13
f 33/58/14 24/34/14 23/33/14
f 23/33/14 34/57/14 33/58/14
f 35/60/15 26/36/15 25/35/15
f 25/35/15 36/59/15 35/60/15
f 36/59/16 25/35/16 24/34/16
f 24/34/16 33/58/16 36/59/16
f 34/57/17 23/33/17 26/36/17
f 26/36/17 35/60/17 34/57/17
f 44/64/7 41/61/7 42/62/7
f 42/62/7 43/63/7 44/64/7
f 29/68/18 42/65/18 41/66/18
f 41/66/18 30/67/18 29/68/18
f 31/72/19 44/69/19 43/70/19
f 43/70/19 32/71/19 31/72/19
f 32/74/20 43/63/20 42/62/20
f 42/62/20 29/73/20 32/74/20
f 30/76/21 41/61/21 44/64/21
f 44/64/21 31/75/21 30/76/21

# Mesh
g Edifico_Izquierda
usemtl DefaultMaterial
f 48/80/22 45/77/22 46/78/22
f 46/78/22 47/79/22 48/80/22
f 52/84/23 49/81/23 50/82/23
f 50/82/23 51/83/23 52/84/23
f 54/88/4 48/85/4 47/86/4
f 47/86/4 53/87/4 54/88/4
f 56/92/13 52/89/13 51/90/13
f 51/90/13 55/91/13 56/92/13
f 45/77/2 57/93/2 58/94/2
f 58/94/2 46/78/2 45/77/2
f 57/93/24 56/95/24 55/96/24
f 55/96/24 58/94/24 57/93/24
f 60/100/25 54/97/25 53/98/25
f 53/98/25 59/99/25 60/100/25
f 51/104/26 50/101/26 61/102/26
f 61/102/26 62/103/26 51/104/26
f 53/108/27 47/105/27 63/106/27
f 63/106/27 64/107/27 53/108/27
f 55/110/28 51/104/28 62/103/28
f 62/103/28 65/109/28 55/110/28
f 46/114/29 58/111/29 66/112/29
f 66/112/29 67/113/29 46/114/29
f 50/101/30 59/115/30 68/116/30
f 68/116/30 61/102/30 50/101/30
f 58/111/31 55/110/31 65/109/31
f 65/109/31 66/112/31 58/111/31
f 59/115/32 53/108/32 64/107/32
f 64/107/32 68/116/32 59/115/32
f 47/105/33 46/114/33 67/113/33
f 67/113/33 63/106/33 47/105/33
f 72/120/34 69/117/34 70/118/34
f 70/118/34 71/119/34 72/120/34
f 76/124/35 73/121/35 74/122/35
f 74/122/35 75/123/35 76/124/35
f 67/113/36 66/112/36 61/102/36
f 61/102/36 68/116/36 67/113/36
f 78/126/3 77/125/3 49/81/3
f 49/81/3 60/100/3 78/126/3
f 80/128/3 79/127/3 59/99/3
f 59/99/3 50/82/3 80/128/3
f 77/125/3 80/128/3 50/82/3
f 50/82/3 49/81/3 77/125/3
f 79/127/3 78/126/3 60/100/3
f 60/100/3 59/99/3 79/127/3
f 82/130/37 81/129/37 68/116/37
f 68/116/37 64/107/37 82/130/37
f 76/131/38 82/130/38 64/107/38
f 64/107/38 63/106/38 76/131/38
f 73/132/39 76/131/39 63/106/39
f 63/106/39 67/113/39 73/132/39
f 81/129/40 73/132/40 67/113/40
f 67/113/40 68/116/40 81/129/40
f 84/134/36 83/133/36 65/109/36
f 65/109/36 62/103/36 84/134/36
f 83/133/36 69/135/36 66/112/36
f 66/112/36 65/109/36 83/133/36
f 72/136/36 84/134/36 62/103/36
f 62/103/36 61/102/36 72/136/36
f 69/135/36 72/136/36 61/102/36
f 61/102/36 66/112/36 69/135/36
f 75/140/41 74/137/41 85/138/41
f 85/138/41 86/139/41 75/140/41
f 70/144/36 87/141/36 88/142/36
f 88/142/36 71/143/36 70/144/36
f 81/148/42 82/145/42 86/146/42
f 86/146/42 85/147/42 81/148/42
f 69/152/43 83/149/43 87/150/43
f 87/150/43 70/151/43 69/152/43
f 73/156/44 81/153/44 85/154/44
f 85/154/44 74/155/44 73/156/44
f 82/160/45 76/157/45 75/158/45
f 75/158/45 86/159/45 82/160/45
f 84/164/46 72/161/46 71/162/46
f 71/162/46 88/163/46 84/164/46
f 83/168/47 84/165/47 88/166/47
f 88/166/47 87/167/47 83/168/47

# Mesh
g Edificio_inicio:001
usemtl DefaultMaterial
f 9/172/36 8/169/36 14/170/36
f 14/170/36 13/171/36 9/172/36
f 17/176/36 12/173/36 6/174/36
f 6/174/36 5/175/36 17/176/36
f 8/169/36 17/176/36 5/175/36
f 5/175/36 14/170/36 8/169/36

# Mesh
g Edifico_Izquierda:001
usemtl DefaultMaterial
f 92/180/48 89/177/48 90/178/48
f 90/178/48 91/179/48 92/180/48
f 96/184/49 93/181/49 94/182/49
f 94/182/49 95/183/49 96/184/49
f 91/188/4 90/185/4 97/186/4
f 97/186/4 98/187/4 91/188/4
f 95/192/13 94/189/13 99/190/13
f 99/190/13 100/191/13 95/192/13
f 102/194/3 101/193/3 89/177/3
f 89/177/3 92/180/3 102/194/3
f 100/196/50 99/195/50 101/193/50
f 101/193/50 102/194/50 100/196/50
f 98/200/51 97/197/51 103/198/51
f 103/198/51 104/199/51 98/200/51
f 106/204/52 96/201/52 95/202/52
f 95/202/52 105/203/52 106/204/52
f 108/208/27 91/205/27 98/206/27
f 98/206/27 107/207/27 108/208/27
f 105/203/28 95/202/28 100/209/28
f 100/209/28 109/210/28 105/203/28
f 111/214/53 102/211/53 92/212/53
f 92/212/53 110/213/53 111/214/53
f 112/216/54 104/215/54 96/201/54
f 96/201/54 106/204/54 112/216/54
f 109/210/55 100/209/55 102/211/55
f 102/211/55 111/214/55 109/210/55
f 107/207/56 98/206/56 104/215/56
f 104/215/56 112/216/56 107/207/56
f 110/213/57 92/212/57 91/205/57
f 91/205/57 108/208/57 110/213/57
f 116/220/58 113/217/58 114/218/58
f 114/218/58 115/219/58 116/220/58
f 120/224/59 117/221/59 118/222/59
f 118/222/59 119/223/59 120/224/59
f 106/204/36 111/214/36 110/213/36
f 110/213/36 112/216/36 106/204/36
f 93/181/2 121/225/2 122/226/2
f 122/226/2 103/198/2 93/181/2
f 104/199/2 123/227/2 124/228/2
f 124/228/2 96/184/2 104/199/2
f 96/184/2 124/228/2 121/225/2
f 121/225/2 93/181/2 96/184/2
f 103/198/2 122/226/2 123/227/2
f 123/227/2 104/199/2 103/198/2
f 112/216/60 125/229/60 126/230/60
f 126/230/60 107/207/60 112/216/60
f 107/207/38 126/230/38 118/231/38
f 118/231/38 108/208/38 107/207/38
f 108/208/61 118/231/61 117/232/61
f 117/232/61 110/213/61 108/208/61
f 110/213/62 117/232/62 125/229/62
f 125/229/62 112/216/62 110/213/62
f 109/210/36 127/233/36 128/234/36
f 128/234/36 105/203/36 109/210/36
f 111/214/36 113/235/36 127/233/36
f 127/233/36 109/210/36 111/214/36
f 105/203/36 128/234/36 114/236/36
f 114/236/36 106/204/36 105/203/36
f 106/204/36 114/236/36 113/235/36
f 113/235/36 111/214/36 106/204/36
f 130/240/63 120/237/63 119/238/63
f 119/238/63 129/239/63 130/240/63
f 132/244/36 131/241/36 116/242/36
f 116/242/36 115/243/36 132/244/36
f 129/248/64 126/245/64 125/246/64
f 125/246/64 130/247/64 129/248/64
f 131/252/65 127/249/65 113/250/65
f 113/250/65 116/251/65 131/252/65
f 130/256/66 125/253/66 117/254/66
f 117/254/66 120/255/66 130/256/66
f 119/260/67 118/257/67 126/258/67
f 126/258/67 129/259/67 119/260/67
f 115/264/68 114/261/68 128/262/68
f 128/262/68 132/263/68 115/264/68
f 132/268/47 128/265/47 127/266/47
f 127/266/47 131/267/47 132/268/47

# Mesh
g Edifico_Izquierda:002
usemtl DefaultMaterial
f 54/272/7 60/269/7 45/270/7
f 45/270/7 48/271/7 54/272/7
f 49/276/7 52/273/7 56/274/7
f 56/274/7 57/275/7 49/276/7
f 60/269/7 49/276/7 57/275/7
f 57/275/7 45/270/7 60/269/7

# Mesh
g Edifico_Izquierda:003
usemtl DefaultMaterial
f 89/280/7 103/277/7 97/278/7
f 97/278/7 90/279/7 89/280/7
f 99/284/7 94/281/7 93/282/7
f 93/282/7 101/283/7 99/284/7
f 101/283/7 93/282/7 103/277/7
f 103/277/7 89/280/7 101/283/7
